<svg width="196" height="30" viewBox="0 0 196 30" xmlns="http://www.w3.org/2000/svg" xmlns:xlink="http://www.w3.org/1999/xlink"><title>nav_logo</title><defs><path id="a" d="M19.406.123H.154v22.4h19.252V.123z"/><path id="c" d="M.17 22.624h14.984V.008H.17v22.616z"/></defs><g fill="none" fill-rule="evenodd"><path d="M18.35 1.087h3.694c.111 0 .2.09.2.201v3.693a.2.2 0 0 1-.2.201h-3.693a.2.2 0 0 1-.2-.2V1.287a.2.2 0 0 1 .2-.2M18.35 6.898h3.694c.111 0 .2.09.2.201v3.693a.2.2 0 0 1-.2.2h-3.693a.2.2 0 0 1-.2-.2V7.1a.2.2 0 0 1 .2-.2M18.35 12.709h3.694c.111 0 .2.09.2.2v3.694a.2.2 0 0 1-.2.2h-3.693a.2.2 0 0 1-.2-.2V12.91a.2.2 0 0 1 .2-.201M12.54 1.087h3.694c.11 0 .2.09.2.201v3.693a.2.2 0 0 1-.2.201H12.54a.2.2 0 0 1-.2-.2V1.287a.2.2 0 0 1 .2-.2M12.54 6.898h3.694c.11 0 .2.09.2.201v3.693a.2.2 0 0 1-.2.2H12.54a.2.2 0 0 1-.2-.2V7.1a.2.2 0 0 1 .2-.2M12.54 12.709h3.694c.11 0 .2.09.2.2v3.694a.2.2 0 0 1-.2.2H12.54a.2.2 0 0 1-.2-.2V12.91a.2.2 0 0 1 .2-.201M6.73 1.087h3.693c.11 0 .2.09.2.201v3.693a.2.2 0 0 1-.2.201H6.73a.2.2 0 0 1-.201-.2V1.287a.2.2 0 0 1 .2-.2M6.73 12.709h3.693c.11 0 .2.09.2.2v3.694a.2.2 0 0 1-.2.2H6.73a.2.2 0 0 1-.201-.2V12.91a.2.2 0 0 1 .2-.201M.919 1.087h3.693c.11 0 .2.09.2.201v3.693a.2.2 0 0 1-.2.201H.92a.2.2 0 0 1-.2-.2V1.287a.2.2 0 0 1 .2-.2M.919 6.898h3.693c.11 0 .2.09.2.201v3.693a.2.2 0 0 1-.2.2H.92a.2.2 0 0 1-.2-.2V7.1a.2.2 0 0 1 .2-.2M.919 12.709h3.693c.11 0 .2.09.2.2v3.694a.2.2 0 0 1-.2.2H.92a.2.2 0 0 1-.2-.2V12.91a.2.2 0 0 1 .2-.201M18.35 18.52h3.694c.111 0 .2.09.2.2v3.694a.2.2 0 0 1-.2.2h-3.693a.2.2 0 0 1-.2-.2V18.72a.2.2 0 0 1 .2-.2M.718 22.414V18.72c0-.11.09-.2.2-.2h3.694c.11 0 .2.09.2.2v3.694a.2.2 0 0 1-.2.2H.919a.2.2 0 0 1-.201-.2M6.529 22.414V18.72c0-.11.09-.2.2-.2h3.694c.11 0 .2.09.2.2v3.694a.2.2 0 0 1-.2.2H6.73a.2.2 0 0 1-.201-.2M12.34 22.414V18.72c0-.11.09-.2.2-.2h3.693c.111 0 .201.09.201.2v3.694a.2.2 0 0 1-.2.2H12.54a.2.2 0 0 1-.2-.2" fill="#E94124"/><path d="M29.972 1.087h3.964a.2.2 0 0 1 .201.201v17.683h9.445c.11 0 .2.09.2.201v3.242a.2.2 0 0 1-.2.2h-13.61a.2.2 0 0 1-.2-.2V1.288a.2.2 0 0 1 .2-.2M48.815 13.085h6.864c-.12-1.957-1.415-3.447-3.281-3.447-2.168 0-3.222 1.43-3.583 3.447m-4.095 1.656c0-4.576 3.101-8.264 7.617-8.264 4.906 0 7.551 3.835 7.616 9.233a.204.204 0 0 1-.202.205H48.755c.3 2.379 1.625 3.99 3.944 3.99 1.538 0 2.461-.672 2.93-1.773a.2.2 0 0 1 .184-.124h3.647c.13 0 .228.122.197.248-.664 2.63-3.075 4.81-6.928 4.81-5.118 0-8.009-3.718-8.009-8.325M66.016 9.006c1.054-1.656 2.559-2.53 4.667-2.53 3.191 0 5.329 2.41 5.329 5.781v10.157a.2.2 0 0 1-.201.2h-3.693a.2.2 0 0 1-.2-.2v-9.555c0-1.655-.964-2.83-2.68-2.83-1.807 0-3.132 1.445-3.132 3.553v8.832a.2.2 0 0 1-.2.2h-3.694a.2.2 0 0 1-.2-.2V7.099a.2.2 0 0 1 .2-.2h3.603a.2.2 0 0 1 .201.2v1.907zM89.209 14.862c0-2.951-.964-5.073-3.583-5.073-2.258 0-3.402 2.122-3.402 4.982 0 2.981 1.174 4.863 3.281 4.863 2.44 0 3.704-1.942 3.704-4.772m-11.14-.09c0-4.818 2.74-8.295 6.593-8.295 2.168 0 3.613.993 4.456 2.288V1.288c0-.11.09-.2.2-.2h3.694c.11 0 .2.09.2-.07v21.125c0 .381-.09.471-.2.471H89.47a.2.2 0 0 1-.2-.2v-1.817c-.904 1.475-2.5 2.469-4.667 2.469-3.884 0-6.533-3.297-6.533-8.295M96.078 6.898h3.693c.111 0 .201.09.201.201v15.315a.2.2 0 0 1-.2.2h-3.694a.2.2 0 0 1-.2-.2V7.099a.2.2 0 0 1 .2-.2M106.626 9.006c1.053-1.656 2.559-2.53 4.666-2.53 3.192 0 5.33 2.41 5.33 5.781v10.157a.2.2 0 0 1-.201.2h-3.694a.2.2 0 0 1-.2-.2v-9.555c0-1.655-.964-2.83-2.68-2.83-1.806 0-3.131 1.445-3.131 3.553v8.832a.2.2 0 0 1-.2.2h-3.694a.2.2 0 0 1-.2-.2V7.099a.2.2 0 0 1 .2-.2h3.603a.2.2 0 0 1 .2.2v1.907z" fill="#103B5E"/><g transform="translate(135.566 .543)"><mask id="b" fill="#fff"><use xlink:href="#a"/></mask><path d="M.154 11.383C.154 5 4.128.123 10.48.123c5.2 0 8.312 3.045 8.853 7.028a.202.202 0 0 1-.2.228H15.19a.2.2 0 0 1-.195-.161c-.441-2.077-2.048-3.422-4.514-3.422-3.975 0-5.871 3.312-5.871 7.587 0 4.396 2.288 7.557 5.9 7.557 2.494 0 4.273-1.458 4.613-3.621a.2.2 0 0 1 .197-.172h3.884c.117 0 .212.1.201.218a7.615 7.615 0 0 1-2.36 4.87c-1.476 1.385-3.554 2.288-6.534 2.288-6.052 0-10.357-4.667-10.357-11.14" fill="#103B5E" mask="url(#b)"/></g><path d="M157.448 1.087h3.693c.111 0 .201.09.201.201v21.126a.2.2 0 0 1-.2.2h-3.694a.2.2 0 0 1-.2-.2V1.288a.2.2 0 0 1 .2-.2M174.083 22.614a.2.2 0 0 1-.2-.2v-1.606c-1.055 1.415-2.35 2.228-4.517 2.228-3.432 0-5.36-2.198-5.36-5.57V7.099c0-.11.09-.2.201-.2h3.664c.11 0 .2.09.2.2v9.674c0 1.807.813 2.8 2.56 2.8 1.926 0 3.1-1.445 3.1-3.492V7.099c0-.11.09-.2.201-.2h3.693a.2.2 0 0 1 .201.2v15.315a.2.2 0 0 1-.2.2h-3.543zM191.48 14.771c0-2.86-1.144-4.982-3.432-4.982-2.59 0-3.553 2.212-3.553 5.072 0 2.83 1.415 4.773 3.703 4.773 2.108 0 3.282-1.882 3.282-4.863m-7.045 5.916v1.727a.2.2 0 0 1-.2.2h-3.543c-.111 0-.201-.09-.201-.471V1.017c0 .16.09.07.2.07h3.694a.2.2 0 0 1 .2.201v7.477c.844-1.295 2.259-2.288 4.396-2.288 3.884 0 6.654 3.477 6.654 8.294 0 4.998-2.65 8.295-6.533 8.295-2.168 0-3.764-.933-4.667-2.379" fill="#103B5E"/><path d="M96.078 1.087h3.693c.111 0 .201.09.201.201v3.693a.2.2 0 0 1-.2.201h-3.694a.2.2 0 0 1-.2-.2V1.287a.2.2 0 0 1 .2-.2" fill="#E94124"/><g transform="translate(118.508 6.468)"><mask id="d" fill="#fff"><use xlink:href="#c"/></mask><path d="M7.59 12.714c-2.176 0-3.265-1.921-3.265-4.642 0-2.835 1.117-4.752 3.122-4.752 2.176 0 3.522 1.974 3.522 4.666 0 2.72-.916 4.728-3.379 4.728M14.954.43H11.41a.2.2 0 0 0-.2.2v1.757C10.306.942 8.71.008 6.543.008 2.66.008.17 3.545.17 8.302c0 4.652 2.61 7.844 6.494 7.844 2.138 0 3.556-.979 4.456-2.385v2.54c0 2.108-1.114 3.222-3.432 3.222-1.811 0-2.69-.847-3.053-1.747a.202.202 0 0 0-.186-.13H.759a.202.202 0 0 0-.2.235c.522 2.87 3.085 4.743 7.189 4.743 2.288 0 4.275-.542 5.57-1.746 1.144-1.054 1.836-2.53 1.836-4.697V.631a.2.2 0 0 0-.2-.201" fill="#103B5E" mask="url(#d)"/></g></g></svg>